<?xml version="1.0" standalone="no"?>
<!DOCTYPE svg PUBLIC "-//W3C//DTD SVG 20010904//EN"
 "http://www.w3.org/TR/2001/REC-SVG-20010904/DTD/svg10.dtd">
<svg version="1.0" xmlns="http://www.w3.org/2000/svg"
 width="200.000000pt" height="200.000000pt" viewBox="0 0 200.000000 200.000000"
 preserveAspectRatio="xMidYMid meet">
<metadata>
Created by potrace 1.11, written by Peter Selinger 2001-2013
</metadata>
<g transform="translate(0.000000,200.000000) scale(0.100000,-0.100000)"
fill="#000000" stroke="none">
<path d="M526 1634 c-224 -42 -413 -225 -466 -451 -12 -53 -17 -190 -7 -233
48 -229 190 -395 397 -464 91 -30 190 -42 191 -24 0 7 2 26 3 42 2 32 1 33
-72 40 -158 18 -311 129 -386 279 -159 322 54 703 409 734 98 8 168 -13 233
-72 169 -152 97 -434 -124 -483 -23 -5 -46 -7 -51 -3 -6 3 -10 62 -11 131 0
69 -1 131 -1 138 -1 7 -16 12 -41 12 -25 0 -40 -5 -41 -12 -1 -16 -1 -340 0
-352 1 -5 41 -6 90 -4 66 4 103 12 144 31 241 110 290 434 93 610 -92 82 -210
108 -360 81z"/>
<path d="M1255 1633 c-66 -14 -187 -65 -230 -98 -19 -15 -19 -16 11 -45 l29
-30 66 35 c197 105 417 79 576 -68 110 -101 166 -225 167 -367 0 -125 -16
-186 -79 -285 -67 -106 -205 -205 -307 -222 l-38 -6 0 182 c0 137 -3 181 -12
182 -42 4 -73 -2 -92 -19 -85 -78 -224 -82 -305 -9 -24 21 -41 27 -75 27 l-44
0 2 -227 1 -228 42 -3 41 -3 1 167 c1 92 3 169 5 171 1 2 22 -7 47 -19 77 -37
183 -31 289 16 13 5 15 -15 14 -151 0 -87 2 -164 4 -171 5 -16 78 -9 162 14
251 70 434 312 432 569 -1 121 -27 216 -87 315 -129 212 -378 322 -620 273z"/>
</g>
</svg>
